<svg width="426.5" xmlns="http://www.w3.org/2000/svg" height="336" id="screenshot-075d266f-e860-80a9-8006-a05973b24ba2" viewBox="-5.5 359 426.5 336" xmlns:xlink="http://www.w3.org/1999/xlink" fill="none" version="1.1"><g id="shape-075d266f-e860-80a9-8006-a05973b24ba2"><g class="fills" id="fills-075d266f-e860-80a9-8006-a05973b24ba2"><path d="M-5.5,542C-4,542,139.97454833984375,542.8841552734375,142,542.5C229,526,244.98529052734375,359,279,359C326.04254150390625,359,322.9541015625,544,421,544L220,545C220,545,202,695,167,695C124.98809814453125,695.0000610351562,96,554,-5.5,542" style="fill: rgb(251, 252, 254); fill-opacity: 1;"/></g><g id="strokes-f12ccace-c8e8-8067-8006-a05bdb8cc337-075d266f-e860-80a9-8006-a05973b24ba2" class="strokes"><g class="inner-stroke-shape"><defs><clipPath id="inner-stroke-render-1-075d266f-e860-80a9-8006-a05973b24ba2-0"><use href="#stroke-shape-render-1-075d266f-e860-80a9-8006-a05973b24ba2-0"/></clipPath><path d="M-5.5,542C-4,542,139.97454833984375,542.8841552734375,142,542.5C229,526,244.98529052734375,359,279,359C326.04254150390625,359,322.9541015625,544,421,544L220,545C220,545,202,695,167,695C124.98809814453125,695.0000610351562,96,554,-5.5,542" id="stroke-shape-render-1-075d266f-e860-80a9-8006-a05973b24ba2-0" style="fill: none; stroke-width: 4; stroke: rgb(251, 252, 254); stroke-opacity: 1;"/></defs><use href="#stroke-shape-render-1-075d266f-e860-80a9-8006-a05973b24ba2-0" clip-path="url('#inner-stroke-render-1-075d266f-e860-80a9-8006-a05973b24ba2-0')"/></g></g></g></svg>